HIERARCHY
ROOT newVegas:Hips
{
	OFFSET 0.000000 96.479958 0.000000
	CHANNELS 6 Xposition Yposition Zposition Xrotation Yrotation Zrotation
	JOINT newVegas:Pelvis
	{
		OFFSET 0.000000 0.000000 0.000000
		CHANNELS 3 Xrotation Yrotation Zrotation
		JOINT newVegas:LeftUpLeg
		{
			OFFSET 18.735201 -5.666702 -4.541200
			CHANNELS 3 Xrotation Yrotation Zrotation
			JOINT newVegas:LeftLeg
			{
				OFFSET -0.021200 -31.938179 0.493100
				CHANNELS 3 Xrotation Yrotation Zrotation
				JOINT newVegas:LeftFoot
				{
					OFFSET 0.021200 -31.938179 -4.336299
					CHANNELS 3 Xrotation Yrotation Zrotation
					JOINT newVegas:LeftToeBase
					{
						OFFSET 0.943001 -26.722000 15.023500
						CHANNELS 3 Xrotation Yrotation Zrotation
						End Site
						{
							OFFSET 0.000000 30.670183 0.000000
						}
					}
				}
				JOINT newVegas:Left_PantLeg
				{
					OFFSET 0.663870 -9.044666 -1.108900
					CHANNELS 3 Xrotation Yrotation Zrotation
					End Site
					{
						OFFSET 1.415995 20.635357 0.000000
					}
				}
			}
		}
		JOINT newVegas:RightUpLeg
		{
			OFFSET -18.735201 -5.666702 -4.541200
			CHANNELS 3 Xrotation Yrotation Zrotation
			JOINT newVegas:RightLeg
			{
				OFFSET 0.018946 -31.938133 0.493100
				CHANNELS 3 Xrotation Yrotation Zrotation
				JOINT newVegas:RightFoot
				{
					OFFSET -0.018946 -31.938126 -4.336299
					CHANNELS 3 Xrotation Yrotation Zrotation
					JOINT newVegas:RightToeBase
					{
						OFFSET -0.943001 -26.722004 15.023500
						CHANNELS 3 Xrotation Yrotation Zrotation
						End Site
						{
							OFFSET 0.000000 30.670187 0.000000
						}
					}
				}
				JOINT newVegas:Right_PantLeg
				{
					OFFSET -0.661674 -9.044716 -1.108900
					CHANNELS 3 Xrotation Yrotation Zrotation
					End Site
					{
						OFFSET -1.415958 20.635269 0.000000
					}
				}
			}
		}
	}
	JOINT newVegas:Spine
	{
		OFFSET 0.000000 10.199997 -0.299500
		CHANNELS 3 Xrotation Yrotation Zrotation
		JOINT newVegas:Spine1
		{
			OFFSET 0.000000 11.900002 -1.516600
			CHANNELS 3 Xrotation Yrotation Zrotation
			JOINT newVegas:Spine2
			{
				OFFSET 0.000000 13.600006 -2.842500
				CHANNELS 3 Xrotation Yrotation Zrotation
				JOINT newVegas:Neck
				{
					OFFSET 0.000000 9.624100 -2.890100
					CHANNELS 3 Xrotation Yrotation Zrotation
					JOINT newVegas:Head
					{
						OFFSET 0.000000 14.068802 -1.351900
						CHANNELS 3 Xrotation Yrotation Zrotation
						JOINT newVegas:Hair_Back
						{
							OFFSET 0.000000 3.231903 -17.524799
							CHANNELS 3 Xrotation Yrotation Zrotation
							End Site
							{
								OFFSET 0.000000 19.849884 0.000000
							}
						}
						JOINT newVegas:Hair_Front
						{
							OFFSET 0.000000 31.260406 4.573800
							CHANNELS 3 Xrotation Yrotation Zrotation
							JOINT newVegas:Hair_Front1
							{
								OFFSET 0.000000 2.284103 11.993300
								CHANNELS 3 Xrotation Yrotation Zrotation
								JOINT newVegas:Hair_Front2
								{
									OFFSET 0.000000 2.284103 11.993300
									CHANNELS 3 Xrotation Yrotation Zrotation
									End Site
									{
										OFFSET 0.000000 12.208862 0.000000
									}
								}
							}
						}
						JOINT newVegas:Jowel
						{
							OFFSET 0.000000 -7.458206 6.864100
							CHANNELS 3 Xrotation Yrotation Zrotation
							End Site
							{
								OFFSET 0.000000 19.849884 0.000000
							}
						}
					}
				}
				JOINT newVegas:LeftShoulder
				{
					OFFSET 15.263000 10.923401 -0.547700
					CHANNELS 3 Xrotation Yrotation Zrotation
					JOINT newVegas:LeftArm
					{
						OFFSET 25.438599 -2.830597 -13.032500
						CHANNELS 3 Xrotation Yrotation Zrotation
						JOINT newVegas:LeftForeArm
						{
							OFFSET 29.960503 0.000000 0.000000
							CHANNELS 3 Xrotation Yrotation Zrotation
							JOINT newVegas:LeftHand
							{
								OFFSET 27.849251 0.000000 0.000000
								CHANNELS 3 Xrotation Yrotation Zrotation
								JOINT newVegas:LeftHandThumb1
								{
									OFFSET 4.487587 -3.305161 6.305391
									CHANNELS 3 Xrotation Yrotation Zrotation
									JOINT newVegas:LeftHandThumb2
									{
										OFFSET 5.480453 -3.164139 3.164143
										CHANNELS 3 Xrotation Yrotation Zrotation
										JOINT newVegas:LeftHandThumb3
										{
											OFFSET 5.159721 -2.978973 2.978967
											CHANNELS 3 Xrotation Yrotation Zrotation
											End Site
											{
												OFFSET 2.494507 5.926697 1.738678
											}
										}
									}
								}
								JOINT newVegas:LeftHandIndex1
								{
									OFFSET 18.578728 -0.527832 5.208049
									CHANNELS 3 Xrotation Yrotation Zrotation
									JOINT newVegas:LeftHandIndex2
									{
										OFFSET 3.192009 0.000000 0.000000
										CHANNELS 3 Xrotation Yrotation Zrotation
										JOINT newVegas:LeftHandIndex3
										{
											OFFSET 3.835129 0.000000 0.000000
											CHANNELS 3 Xrotation Yrotation Zrotation
											End Site
											{
												OFFSET -0.034599 3.816971 0.371180
											}
										}
									}
								}
								JOINT newVegas:LeftHandMiddle1
								{
									OFFSET 18.476105 0.000000 0.000000
									CHANNELS 3 Xrotation Yrotation Zrotation
									JOINT newVegas:LeftHandMiddle2
									{
										OFFSET 3.324875 0.000000 0.000000
										CHANNELS 3 Xrotation Yrotation Zrotation
										JOINT newVegas:LeftHandMiddle3
										{
											OFFSET 4.596550 0.000000 0.000000
											CHANNELS 3 Xrotation Yrotation Zrotation
											End Site
											{
												OFFSET 0.057701 4.578827 0.399218
											}
										}
									}
								}
								JOINT newVegas:LeftHandRing1
								{
									OFFSET 17.732719 0.121887 -4.201567
									CHANNELS 3 Xrotation Yrotation Zrotation
									JOINT newVegas:LeftHandRing2
									{
										OFFSET 2.733170 0.000000 0.000000
										CHANNELS 3 Xrotation Yrotation Zrotation
										JOINT newVegas:LeftHandRing3
										{
											OFFSET 3.178268 0.000000 0.000000
											CHANNELS 3 Xrotation Yrotation Zrotation
											End Site
											{
												OFFSET 0.119102 3.170624 0.185394
											}
										}
									}
								}
								JOINT newVegas:LeftHandPinky1
								{
									OFFSET 15.989624 -0.606689 -7.535461
									CHANNELS 3 Xrotation Yrotation Zrotation
									JOINT newVegas:LeftHandPinky2
									{
										OFFSET 2.538986 0.000000 0.000000
										CHANNELS 3 Xrotation Yrotation Zrotation
										JOINT newVegas:LeftHandPinky3
										{
											OFFSET 2.593102 0.000000 0.000000
											CHANNELS 3 Xrotation Yrotation Zrotation
											End Site
											{
												OFFSET -0.150902 2.584198 0.152708
											}
										}
									}
								}
							}
							JOINT newVegas:Left_Sleeve
							{
								OFFSET 0.267448 -0.649796 0.577675
								CHANNELS 3 Xrotation Yrotation Zrotation
								End Site
								{
									OFFSET 0.000000 15.991241 0.000000
								}
							}
							JOINT newVegas:Left_CapeC
							{
								OFFSET 15.715958 -8.608795 -6.935905
								CHANNELS 3 Xrotation Yrotation Zrotation
								JOINT newVegas:Left_CapeC1
								{
									OFFSET 0.000000 -8.688499 0.000000
									CHANNELS 3 Xrotation Yrotation Zrotation
									End Site
									{
										OFFSET 0.000000 8.688499 0.000000
									}
								}
							}
						}
						JOINT newVegas:Left_CapeB
						{
							OFFSET 26.118385 -8.608795 -7.079235
							CHANNELS 3 Xrotation Yrotation Zrotation
							JOINT newVegas:Left_CapeB1
							{
								OFFSET 0.000000 -8.688499 0.000000
								CHANNELS 3 Xrotation Yrotation Zrotation
								End Site
								{
									OFFSET 0.000000 8.688499 0.000000
								}
							}
						}
						JOINT newVegas:Left_CapeA
						{
							OFFSET 5.115639 -8.608795 -10.395809
							CHANNELS 3 Xrotation Yrotation Zrotation
							JOINT newVegas:Left_CapeA1
							{
								OFFSET 0.000000 -8.688499 0.000000
								CHANNELS 3 Xrotation Yrotation Zrotation
								End Site
								{
									OFFSET 0.000000 8.688499 0.000000
								}
							}
						}
					}
				}
				JOINT newVegas:RightShoulder
				{
					OFFSET -15.263000 10.923401 -0.547700
					CHANNELS 3 Xrotation Yrotation Zrotation
					JOINT newVegas:RightArm
					{
						OFFSET -25.438599 -2.830597 -13.032500
						CHANNELS 3 Xrotation Yrotation Zrotation
						JOINT newVegas:RightForeArm
						{
							OFFSET -29.960503 0.000000 0.000000
							CHANNELS 3 Xrotation Yrotation Zrotation
							JOINT newVegas:RightHand
							{
								OFFSET -27.849251 0.000000 0.000000
								CHANNELS 3 Xrotation Yrotation Zrotation
								JOINT newVegas:RightHandThumb1
								{
									OFFSET -4.487587 -3.305161 6.305391
									CHANNELS 3 Xrotation Yrotation Zrotation
									JOINT newVegas:RightHandThumb2
									{
										OFFSET -5.480453 -3.164139 3.164143
										CHANNELS 3 Xrotation Yrotation Zrotation
										JOINT newVegas:RightHandThumb3
										{
											OFFSET -5.159721 -2.978973 2.978967
											CHANNELS 3 Xrotation Yrotation Zrotation
											End Site
											{
												OFFSET -2.494507 5.926697 1.738678
											}
										}
									}
								}
								JOINT newVegas:RightHandIndex1
								{
									OFFSET -18.578728 -0.527832 5.208049
									CHANNELS 3 Xrotation Yrotation Zrotation
									JOINT newVegas:RightHandIndex2
									{
										OFFSET -3.192009 0.000000 0.000000
										CHANNELS 3 Xrotation Yrotation Zrotation
										JOINT newVegas:RightHandIndex3
										{
											OFFSET -3.835129 0.000000 0.000000
											CHANNELS 3 Xrotation Yrotation Zrotation
											End Site
											{
												OFFSET 0.034599 3.816971 0.371180
											}
										}
									}
								}
								JOINT newVegas:RightHandMiddle1
								{
									OFFSET -18.476105 0.000000 0.000000
									CHANNELS 3 Xrotation Yrotation Zrotation
									JOINT newVegas:RightHandMiddle2
									{
										OFFSET -3.324875 0.000000 0.000000
										CHANNELS 3 Xrotation Yrotation Zrotation
										JOINT newVegas:RightHandMiddle3
										{
											OFFSET -4.596550 0.000000 0.000000
											CHANNELS 3 Xrotation Yrotation Zrotation
											End Site
											{
												OFFSET -0.057701 4.578827 0.399218
											}
										}
									}
								}
								JOINT newVegas:RightHandRing1
								{
									OFFSET -17.732719 0.121887 -4.201567
									CHANNELS 3 Xrotation Yrotation Zrotation
									JOINT newVegas:RightHandRing2
									{
										OFFSET -2.733170 0.000000 0.000000
										CHANNELS 3 Xrotation Yrotation Zrotation
										JOINT newVegas:RightHandRing3
										{
											OFFSET -3.178268 0.000000 0.000000
											CHANNELS 3 Xrotation Yrotation Zrotation
											End Site
											{
												OFFSET -0.119102 3.170624 0.185394
											}
										}
									}
								}
								JOINT newVegas:RightHandPinky1
								{
									OFFSET -15.989624 -0.606689 -7.535461
									CHANNELS 3 Xrotation Yrotation Zrotation
									JOINT newVegas:RightHandPinky2
									{
										OFFSET -2.538986 0.000000 0.000000
										CHANNELS 3 Xrotation Yrotation Zrotation
										JOINT newVegas:RightHandPinky3
										{
											OFFSET -2.593102 0.000000 0.000000
											CHANNELS 3 Xrotation Yrotation Zrotation
											End Site
											{
												OFFSET 0.150902 2.584198 0.152708
											}
										}
									}
								}
							}
							JOINT newVegas:Right_CapeC
							{
								OFFSET -15.715958 -8.608795 -6.935905
								CHANNELS 3 Xrotation Yrotation Zrotation
								JOINT newVegas:Right_CapeC1
								{
									OFFSET 0.000000 -8.688499 0.000000
									CHANNELS 3 Xrotation Yrotation Zrotation
									End Site
									{
										OFFSET 0.000000 8.688499 0.000000
									}
								}
							}
							JOINT newVegas:Right_Sleeve
							{
								OFFSET -0.267448 -0.649994 0.577675
								CHANNELS 3 Xrotation Yrotation Zrotation
								End Site
								{
									OFFSET 0.000000 15.991302 0.000000
								}
							}
						}
						JOINT newVegas:Right_CapeA
						{
							OFFSET -5.115540 -8.608795 -10.395824
							CHANNELS 3 Xrotation Yrotation Zrotation
							JOINT newVegas:Right_CapeA1
							{
								OFFSET 0.000000 -8.688499 0.000000
								CHANNELS 3 Xrotation Yrotation Zrotation
								End Site
								{
									OFFSET 0.000000 8.688499 0.000000
								}
							}
						}
						JOINT newVegas:Right_CapeB
						{
							OFFSET -26.118187 -8.608795 -7.079266
							CHANNELS 3 Xrotation Yrotation Zrotation
							JOINT newVegas:Right_CapeB1
							{
								OFFSET 0.000000 -8.688499 0.000000
								CHANNELS 3 Xrotation Yrotation Zrotation
								End Site
								{
									OFFSET 0.000000 8.688499 0.000000
								}
							}
						}
					}
				}
				JOINT newVegas:Left_Collar
				{
					OFFSET 18.625099 8.655502 8.828100
					CHANNELS 3 Xrotation Yrotation Zrotation
					JOINT newVegas:Left_Collar1
					{
						OFFSET 14.783401 10.540405 -1.259500
						CHANNELS 3 Xrotation Yrotation Zrotation
						End Site
						{
							OFFSET 0.000000 18.199875 0.000000
						}
					}
				}
				JOINT newVegas:Collar_Back
				{
					OFFSET 0.000000 15.630707 -20.132601
					CHANNELS 3 Xrotation Yrotation Zrotation
					End Site
					{
						OFFSET 0.000000 22.523010 0.000000
					}
				}
				JOINT newVegas:Left_Peck
				{
					OFFSET 17.239599 -5.132599 25.482599
					CHANNELS 3 Xrotation Yrotation Zrotation
					End Site
					{
						OFFSET 0.000000 22.523010 0.000000
					}
				}
				JOINT newVegas:Right_Peck
				{
					OFFSET -17.239599 -5.132202 25.482599
					CHANNELS 3 Xrotation Yrotation Zrotation
					End Site
					{
						OFFSET 0.000000 22.523010 0.000000
					}
				}
				JOINT newVegas:Right_Collar
				{
					OFFSET -18.625099 8.655792 8.828100
					CHANNELS 3 Xrotation Yrotation Zrotation
					JOINT newVegas:Right_Collar1
					{
						OFFSET -14.783401 10.539993 -1.259500
						CHANNELS 3 Xrotation Yrotation Zrotation
						End Site
						{
							OFFSET 0.000000 18.199631 0.000000
						}
					}
				}
			}
		}
		JOINT newVegas:Belly
		{
			OFFSET 0.000000 -6.540398 9.014299
			CHANNELS 3 Xrotation Yrotation Zrotation
			End Site
			{
				OFFSET 0.000000 11.566666 0.000000
			}
		}
	}
	JOINT newVegas:ElvisFacialAnim_Joint
	{
		OFFSET 1.000000 -95.330101 -8.825800
		CHANNELS 3 Xrotation Yrotation Zrotation
		End Site
		{
			OFFSET 0.000000 35.315800 0.000000
		}
	}
}
MOTION
Frames: 4
Frame Time: 0.033333
-1.526955 82.986763 2.794001 18.281684 1.766283 -1.540579 0.000002 0.000000 -0.000000 -60.370239 -14.919992 22.179103 57.038886 -1.879091 -1.736353 12.092952 -0.642121 -20.579007 0.000001 -0.000001 -0.000000 -0.000000 0.000000 -0.000002 -54.688608 -12.191978 7.647942 57.121791 -9.577160 -0.772945 -26.903895 -30.068146 -9.571142 0.000000 -0.000000 -0.000000 -0.000001 -0.000000 0.000000 13.256105 7.064660 0.672681 13.770056 3.453951 -1.950370 13.727825 3.536657 -2.052150 -1.032574 0.393013 -2.168155 -1.032618 0.393015 -2.168160 -0.000002 0.000001 -0.000000 -1.032630 0.392992 -2.168148 -1.032443 0.393045 -2.168167 -0.000001 0.000000 -0.000000 -0.000002 0.000001 -0.000001 -0.277821 -16.328252 -17.267898 0.507640 14.737697 -64.719000 -0.000009 -86.576814 -0.000036 -2.735872 6.899491 8.518106 -6.000711 -6.126810 4.616733 7.611074 24.884939 2.404807 0.000000 0.000000 -0.000001 0.670258 4.954166 -26.262414 -0.000001 -0.000001 0.000003 -0.000000 -0.000001 0.000000 0.168157 3.460399 -10.804319 0.427289 2.198186 -21.997632 -0.000000 -0.000000 -0.000002 0.280575 3.938512 -15.605292 0.139158 1.270572 -12.499637 -0.000000 -0.000002 0.000001 0.524901 4.637120 -22.848287 0.000006 0.000002 -0.000038 -0.000000 -0.000003 0.000000 0.000000 0.000001 -0.000000 0.000000 0.000001 -0.000000 0.000000 0.000001 -0.000001 -0.000001 -0.000001 -0.000000 -0.000001 -0.000002 -0.000001 -0.000001 -0.000001 -0.000000 -0.000001 -0.000002 -0.000000 0.516391 39.965274 3.714196 -13.514013 14.449909 66.986773 -0.000013 50.902948 -0.000007 -37.735764 -2.421663 -11.379494 -7.792342 5.343441 3.715157 6.550341 -16.028219 -2.245730 0.000001 0.000001 -0.000000 0.286860 0.397219 -4.929304 0.320245 -1.698769 21.350251 0.000002 -0.000001 0.000003 0.049815 -2.153881 -1.573613 0.321173 -1.701137 21.381514 0.000002 0.000001 -0.000000 0.329219 -4.812829 7.069517 0.321404 -1.701710 21.388976 -0.000001 -0.000001 0.000001 0.444850 -5.667874 14.397646 0.321170 -1.701129 21.381409 0.000000 0.000002 -0.000001 -0.000002 0.000005 0.000004 0.000000 0.000005 0.000003 -0.000002 0.000005 0.000003 -0.000000 -0.000001 -0.000002 -0.000001 0.000000 -0.000002 -0.000000 -0.000001 -0.000002 -0.000001 -0.000000 -0.000000 -0.000002 0.000000 -0.000000 -0.000002 0.000000 -0.000000 -0.000002 0.000000 -0.000000 -0.000002 0.000000 -0.000000 -0.000002 0.000000 -0.000000 -0.000002 0.000000 -0.000000 -0.000002 0.000000 -0.000000 -0.000001 -0.000000 0.000000 0.000002 0.000000 -0.000000 
-1.924377 81.468887 1.918400 19.845291 1.423369 -2.388164 -0.000000 0.000000 0.000000 -64.848896 -17.272698 21.904079 62.398368 -0.512353 -1.753048 9.218210 -0.106766 -19.450260 -0.000000 0.000001 0.000000 -0.000002 -0.000000 -0.000000 -58.220239 -14.057143 9.303425 59.046343 -9.571012 -0.773553 -28.402416 -32.015528 -11.900623 -0.000000 0.000000 0.000000 -0.000002 0.000000 -0.000000 14.975965 6.863212 0.053339 15.044525 3.259234 -2.160721 15.004361 3.358555 -2.256897 -2.033015 0.320465 -2.206426 -2.032991 0.320468 -2.206428 -0.000003 0.000001 -0.000000 -2.032917 0.320463 -2.206432 -2.033069 0.320491 -2.206439 -0.000000 -0.000002 0.000003 -0.000003 0.000001 -0.000000 -0.287721 -16.485686 -17.261063 1.166966 15.560043 -64.870685 -0.000927 -91.254599 -0.000848 -1.354972 2.260691 9.834683 -6.000710 -6.126806 4.616742 7.611081 24.884944 2.404816 0.000000 -0.000002 -0.000003 0.670261 4.954165 -26.262390 0.000000 0.000001 0.000005 0.000000 -0.000001 -0.000001 0.168169 3.460420 -10.804466 0.427291 2.198188 -21.997652 0.000000 -0.000003 -0.000000 0.280581 3.938515 -15.605271 0.139158 1.270580 -12.499649 0.000000 0.000001 0.000000 0.524908 4.637124 -22.848272 -0.000004 -0.000002 0.000000 -0.000000 0.000002 0.000000 -0.000000 0.000002 0.000000 -0.000000 0.000002 0.000000 -0.000000 0.000002 0.000000 -0.000000 0.000001 -0.000000 -0.000000 0.000000 0.000000 -0.000000 0.000001 -0.000000 -0.000000 -0.000000 -0.000000 0.539475 39.459905 3.567948 -11.948034 13.749558 65.564222 -0.000010 59.319899 0.000010 -34.237542 -0.822999 -13.860637 -7.784290 5.325983 3.708137 6.550358 -16.028219 -2.245719 -0.000002 -0.000003 -0.000003 0.287116 0.400577 -4.970718 0.320246 -1.698776 21.350258 0.000002 -0.000002 0.000003 0.049813 -2.153877 -1.573614 0.321167 -1.701140 21.381503 0.000000 -0.000001 0.000003 0.329252 -4.813134 7.069495 0.321402 -1.701714 21.388966 -0.000001 -0.000001 -0.000001 0.444852 -5.667878 14.397631 0.321172 -1.701126 21.381419 0.000000 0.000002 -0.000000 -0.000001 0.000000 -0.000001 0.000003 -0.000001 -0.000002 -0.000001 -0.000000 -0.000004 0.000001 0.000000 0.000002 0.000001 0.000000 -0.000000 0.000001 0.000000 0.000002 0.000001 -0.000000 0.000001 0.000001 0.000000 -0.000000 0.000001 0.000000 -0.000000 0.000001 0.000000 -0.000000 0.000001 0.000000 -0.000000 0.000001 0.000000 -0.000000 0.000001 0.000000 -0.000000 0.000001 0.000000 -0.000000 0.000002 -0.000000 0.000001 -0.000000 0.000000 0.000000 
-2.253475 79.779373 1.254028 21.358423 0.940743 -3.546584 0.000002 0.000000 0.000000 -69.760069 -20.326503 21.708559 67.740020 0.643506 -1.754440 8.183762 0.067017 -18.964782 -0.000001 -0.000000 -0.000000 0.000001 0.000000 0.000000 -61.779758 -15.664023 10.491710 61.693820 -10.651439 -0.940949 -28.845299 -30.546440 -12.055255 -0.000000 0.000000 -0.000000 0.000005 0.000003 0.000001 16.700422 6.781718 -0.397546 16.288312 2.963424 -2.346666 16.247756 3.015791 -2.399304 -2.753816 0.244002 -2.204881 -2.753851 0.243993 -2.204883 -0.000002 -0.000000 0.000002 -2.753817 0.244002 -2.204882 -2.753904 0.243960 -2.204864 0.000001 0.000000 0.000000 -0.000002 -0.000000 0.000002 -0.288945 -16.536470 -17.234644 2.076105 17.002250 -65.906100 -0.000589 -96.225966 -0.000598 1.143859 -2.852823 11.085029 -6.000713 -6.126800 4.616733 7.611082 24.884951 2.404789 0.000001 0.000000 -0.000001 0.670257 4.954169 -26.262405 -0.000001 -0.000001 -0.000045 0.000000 0.000000 -0.000000 0.168170 3.460465 -10.804903 0.427288 2.198195 -21.997645 -0.000000 0.000002 -0.000000 0.280577 3.938517 -15.605271 0.139151 1.270578 -12.499681 0.000001 0.000001 -0.000000 0.524901 4.637133 -22.848311 0.000001 -0.000007 -0.000050 0.000000 -0.000002 -0.000000 0.000000 -0.000002 -0.000000 0.000000 -0.000002 -0.000000 0.000000 -0.000001 -0.000000 -0.000000 -0.000001 -0.000001 -0.000000 -0.000002 -0.000001 -0.000000 -0.000001 -0.000001 0.000000 -0.000002 -0.000001 0.521781 39.154886 3.557669 -10.762679 12.541055 64.739607 0.000013 67.021142 -0.000016 -29.575959 1.216974 -15.277576 -7.775792 5.307728 3.700861 6.550355 -16.028217 -2.245713 0.000000 0.000001 -0.000000 0.287413 0.403848 -5.011027 0.320248 -1.698770 21.350239 -0.000001 -0.000000 -0.000002 0.049815 -2.153883 -1.573633 0.321170 -1.701133 21.381518 -0.000000 -0.000001 0.000000 0.329300 -4.813447 7.069469 0.321397 -1.701708 21.388980 -0.000001 -0.000001 -0.000001 0.444843 -5.667878 14.397632 0.321172 -1.701126 21.381415 -0.000003 0.000003 0.000003 -0.000003 0.000002 0.000002 -0.000003 -0.000000 0.000001 -0.000003 0.000002 0.000000 0.000002 0.000002 0.000002 0.000002 0.000003 -0.000000 0.000002 0.000002 0.000002 0.000002 0.000003 0.000001 -0.000001 0.000000 0.000001 -0.000001 0.000000 0.000001 -0.000001 0.000000 0.000001 -0.000001 0.000000 0.000001 -0.000001 0.000000 0.000001 -0.000001 0.000000 0.000001 -0.000001 0.000000 0.000001 -0.000000 0.000001 -0.000000 0.000002 0.000000 0.000000 
-2.394229 77.852180 0.697697 22.838887 0.505729 -4.674627 -0.000002 -0.000000 0.000001 -75.251637 -23.681915 21.031057 72.901792 1.041129 -1.735730 8.170834 0.080903 -18.656991 -0.000000 -0.000000 -0.000001 0.000001 0.000001 0.000002 -65.846958 -17.233964 11.156459 65.225950 -10.725383 -0.954690 -29.912011 -30.585276 -12.577445 0.000000 -0.000000 0.000000 -0.000001 -0.000000 -0.000002 18.169854 6.682378 -0.845210 17.273016 2.643789 -2.515944 17.231777 2.609517 -2.510111 -3.137118 0.170554 -2.182361 -3.137148 0.170550 -2.182355 -0.000000 0.000000 0.000001 -3.137033 0.170555 -2.182361 -3.137157 0.170536 -2.182361 0.000001 0.000000 0.000001 -0.000000 0.000000 -0.000001 -0.301322 -16.459311 -17.374031 3.590808 18.045585 -66.677543 0.007213 -100.975078 0.007123 3.757981 -7.763396 13.016520 -6.000708 -6.126806 4.616746 7.611077 24.884951 2.404799 0.000000 -0.000001 -0.000004 0.670259 4.954169 -26.262410 0.000001 -0.000005 0.000007 0.000000 -0.000000 0.000000 0.168183 3.460522 -10.805496 0.427290 2.198190 -21.997649 -0.000000 -0.000003 -0.000001 0.280580 3.938515 -15.605275 0.139153 1.270577 -12.499663 -0.000000 0.000001 0.000000 0.524907 4.637127 -22.848291 0.000006 -0.000001 -0.000004 0.000000 -0.000007 0.000000 -0.000000 0.000000 -0.000000 -0.000000 0.000000 -0.000000 0.000000 0.000000 0.000000 -0.000000 0.000001 0.000000 -0.000000 0.000001 0.000000 -0.000000 0.000001 0.000000 -0.000000 0.000001 0.000000 0.499217 38.926624 3.576341 -9.809128 11.300391 64.676899 0.000019 73.261763 0.000012 -24.781586 3.790395 -15.690770 -7.766213 5.287652 3.692823 6.550337 -16.028210 -2.245687 -0.000000 -0.000002 -0.000001 0.287709 0.407022 -5.050148 0.320248 -1.698777 21.350242 0.000000 -0.000001 -0.000001 0.049812 -2.153877 -1.573599 0.321166 -1.701140 21.381503 0.000001 -0.000000 0.000001 0.329341 -4.813744 7.069462 0.321396 -1.701705 21.388975 0.000000 -0.000001 -0.000002 0.444845 -5.667879 14.397648 0.321174 -1.701126 21.381419 -0.000002 0.000001 0.000000 0.000002 0.000001 0.000002 0.000003 -0.000003 -0.000001 0.000002 0.000001 0.000001 0.000002 0.000000 0.000001 0.000003 0.000001 0.000001 0.000002 0.000000 0.000001 0.000003 0.000001 0.000003 0.000000 0.000000 0.000000 0.000000 0.000000 0.000000 0.000000 0.000000 0.000000 0.000000 0.000000 0.000000 0.000000 0.000000 0.000000 0.000000 0.000000 0.000000 0.000000 0.000000 0.000000 -0.000002 -0.000000 -0.000000 -0.000002 -0.000000 0.000001 
